{"title":"A Good Day To Die Hard (2013) TS XviD - Exclusive","uid":8179519,"size":1302466738,"categoryP":"video","categoryS":"movies","magnet":"?xt=urn:btih:2c74bec85c6e594863a4c907878b68a5ee98a494&amp;dn=A+Good+Day+To+Die+Hard+%282013%29+TS+XviD+-+Exclusive&amp;tr=udp%3A%2F%2Ftracker.openbittorrent.com%3A80&amp;tr=udp%3A%2F%2Fopen.demonii.com%3A1337&amp;tr=udp%3A%2F%2Ftracker.coppersurfer.tk%3A6969&amp;tr=udp%3A%2F%2Fexodus.desync.com%3A6969","seeders":8,"leechers":0,"uploader":"tykoon123","files":-1,"time":1361596592,"description":"Poster: &lt;a href=&quot;\nhttp://imgr.us/images/tzny9jw6bba8em2da0fx.jpg&quot; rel=&quot;nofollow&quot; target=&quot;_NEW&quot;&gt;\nhttp://imgr.us/images/tzny9jw6bba8em2da0fx.jpg&lt;/a&gt;\n\nInfo:\nFormat : AVI\nFormat/Info : Audio Video Interleave\nFile size : 1.20 GiB\nDuration : 1h 30mn\nOverall bit rate : 1 891 Kbps\nWriting library : VirtualDub build 32842/release\n\n\nVideo\nID : 0\nFormat : AVC\nFormat/Info : Advanced Video Codec\nFormat profile : &lt;a class=&quot;__cf_email__&quot; href=&quot;/cdn-cgi/l/email-protection&quot; data-cfemail=&quot;96defff1fed6daa5b8a6&quot;&gt;[email&amp;#160;protected]&lt;/a&gt;&lt;script cf-hash='f9e31' type=&quot;text/javascript&quot;&gt;\n/* &lt;![CDATA[ */!function(){try{var t=&quot;currentScript&quot;in document?document.currentScript:function(){for(var t=document.getElementsByTagName(&quot;script&quot;),e=t.length;e--;)if(t[e].getAttribute(&quot;cf-hash&quot;))return t[e]}();if(t&amp;&amp;t.previousSibling){var e,r,n,i,c=t.previousSibling,a=c.getAttribute(&quot;data-cfemail&quot;);if(a){for(e=&quot;&quot;,r=parseInt(a.substr(0,2),16),n=2;a.length-n;n+=2)i=parseInt(a.substr(n,2),16)^r,e+=String.fromCharCode(i);e=document.createTextNode(e),c.parentNode.replaceChild(e,c)}}}catch(u){}}();/* ]]&gt; */&lt;/script&gt;\nFormat settings, CABAC : Yes\nFormat settings, ReFrames : 4 frames\nFormat settings, GOP : M=1, N=2\nCodec ID : X264\nCodec ID/Info : XiWave GNU GPL x264 MPEG-4\nDuration : 1h 30mn\nBit rate : 1 500 Kbps\nWidth : 720 pixels\nHeight : 360 pixels\nDisplay aspect ratio : 2.000\nFrame rate : 25.000 fps\nColor space : YUV\nChroma subsampling : 4:2:0\nBit depth : 8 bits\nScan type : Progressive\nBits/(Pixel*Frame) : 0.231\nStream size : 971 MiB (79%)\nWriting library : x264 core 125 r2200bm 999b753\n\nAudio\nID : 1\nFormat : AC-3\nFormat/Info : Audio Coding 3\nMode extension : CM (complete main)\nCodec ID : 2000\nDuration : 1h 30mn\nBit rate mode : Constant\nBit rate : 384 Kbps\nChannel(s) : 2 channels\nChannel positions : Front: L R\nSampling rate : 48.0 KHz\nBit depth : 16 bits\nCompression mode : Lossy\nStream size : 249 MiB (20%)\nAlignment : Aligned on interleaves\nInterleave, duration : 40 ms (1.00 video frame)\nInterleave, preload duration : 512 ms\n\nSample Included\nyes 1 samples\n_________________________________________________________________________________\n\n\nNotes:\n\nSource was pretty good.\nSource has some movement. Not much. Nothing big.\nRotated,smoothed,sharpend. You know the Drill.\nRan vid thru a few filters. An cleaned the vid up.\n\nAudio is untouched.\n**(Sound may not work in VLC Media Player, So, use any other media player)**\n\nScreens: &lt;a href=&quot;\nhttp://www.shotpix.com/images/30898247957030940711.png&quot; rel=&quot;nofollow&quot; target=&quot;_NEW&quot;&gt;\nhttp://www.shotpix.com/images/30898247957030940711.png&lt;/a&gt; &lt;a href=&quot;\nhttp://www.shotpix.com/images/46558531866255731055.png&quot; rel=&quot;nofollow&quot; target=&quot;_NEW&quot;&gt;\nhttp://www.shotpix.com/images/46558531866255731055.png&lt;/a&gt; &lt;a href=&quot;\nhttp://www.shotpix.com/images/46601254648208582638.png&quot; rel=&quot;nofollow&quot; target=&quot;_NEW&quot;&gt;\nhttp://www.shotpix.com/images/46601254648208582638.png&lt;/a&gt; &lt;a href=&quot;\nhttp://www.shotpix.com/images/42830963649897324889.png&quot; rel=&quot;nofollow&quot; target=&quot;_NEW&quot;&gt;\nhttp://www.shotpix.com/images/42830963649897324889.png&lt;/a&gt; &lt;a href=&quot;\nhttp://www.shotpix.com/images/34795462347214113220.png&quot; rel=&quot;nofollow&quot; target=&quot;_NEW&quot;&gt;\nhttp://www.shotpix.com/images/34795462347214113220.png&lt;/a&gt; &lt;a href=&quot;\nhttp://www.shotpix.com/images/12095120460960290175.png&quot; rel=&quot;nofollow&quot; target=&quot;_NEW&quot;&gt;\nhttp://www.shotpix.com/images/12095120460960290175.png&lt;/a&gt; &lt;a href=&quot;\nhttp://www.shotpix.com/images/69230575728078532603.png&quot; rel=&quot;nofollow&quot; target=&quot;_NEW&quot;&gt;\nhttp://www.shotpix.com/images/69230575728078532603.png&lt;/a&gt;\n","torrent":{"xt":"urn:btih:2c74bec85c6e594863a4c907878b68a5ee98a494","amp;dn":"A+Good+Day+To+Die+Hard+%282013%29+TS+XviD+-+Exclusive","amp;tr":["udp%3A%2F%2Ftracker.openbittorrent.com%3A80","udp%3A%2F%2Fopen.demonii.com%3A1337","udp%3A%2F%2Ftracker.coppersurfer.tk%3A6969","udp%3A%2F%2Fexodus.desync.com%3A6969"],"infoHash":"2c74bec85c6e594863a4c907878b68a5ee98a494","infoHashBuffer":{"type":"Buffer","data":[44,116,190,200,92,110,89,72,99,164,201,7,135,139,104,165,238,152,164,148]},"announce":[],"urlList":[]}}